<?xml version="1.0" encoding="iso-8859-1"?>
<!-- Generator: Adobe Illustrator 19.0.0, SVG Export Plug-In . SVG Version: 6.00 Build 0)  -->
<svg version="1.1" id="Layer_1" xmlns="http://www.w3.org/2000/svg" xmlns:xlink="http://www.w3.org/1999/xlink" x="0px" y="0px"
	 viewBox="0 0 512 512" style="enable-background:new 0 0 512 512;" xml:space="preserve">
<g>
	<g>
		<path d="M270.672,157.92l-0.144,0.096V297.2l24.848-14.912c-0.544-3.472-0.896-6.992-0.896-10.608
			c0.016-21.968,10.496-41.28,26.512-53.872v-92.416L270.672,157.92z"/>
	</g>
</g>
<g>
	<g>
		<circle cx="363.248" cy="271.04" r="14.416"/>
	</g>
</g>
<g>
	<g>
		<polygon points="253.328,157.936 195.008,120.336 195.008,260.384 195.456,260.656 254.544,297.488 254.544,158.72 		"/>
	</g>
</g>
<g>
	<g>
		<polygon points="128,143.904 128,292.16 178.528,260.656 179.008,260.368 179.008,117.92 		"/>
	</g>
</g>
<g>
	<g>
		<path d="M256,0C114.608,0,0,114.608,0,256s114.608,256,256,256s256-114.608,256-256S397.392,0,256,0z M429.504,290.048
			c-0.672,2.448-1.488,4.848-2.416,7.184l-1.872,4.272L363.248,416l-61.872-114.352l-1.504-3.408L262,320.976l-74.992-46.752
			L112,320.992V134.096L186.784,96l6.16,3.968h2.064v1.328l66.976,43.184L336.992,96v112.16c8.096-3.36,16.96-5.248,26.256-5.248
			c37.968,0,68.752,30.784,68.752,68.752C432,278.032,431.136,284.192,429.504,290.048z"/>
	</g>
</g>
<g>
	<g>
		<path d="M363.248,218.912c-29.088,0-52.752,23.664-52.752,52.752c0,4.784,0.64,9.536,1.904,14.112
			c0.496,1.792,1.088,3.552,1.76,5.264l1.568,3.552l47.504,87.792l47.584-87.936l1.616-3.664c0.512-1.296,1.12-3.12,1.648-5.008
			c1.28-4.576,1.92-9.328,1.92-14.112C416,242.576,392.336,218.912,363.248,218.912z M363.248,301.456
			c-16.8,0-30.416-13.616-30.416-30.416s13.616-30.416,30.416-30.416s30.416,13.616,30.416,30.416S380.048,301.456,363.248,301.456z
			"/>
	</g>
</g>
<g>
</g>
<g>
</g>
<g>
</g>
<g>
</g>
<g>
</g>
<g>
</g>
<g>
</g>
<g>
</g>
<g>
</g>
<g>
</g>
<g>
</g>
<g>
</g>
<g>
</g>
<g>
</g>
<g>
</g>
</svg>
