<?xml version="1.0" encoding="iso-8859-1"?>
<!-- Generator: Adobe Illustrator 19.0.0, SVG Export Plug-In . SVG Version: 6.00 Build 0)  -->
<svg version="1.1" id="Layer_1" xmlns="http://www.w3.org/2000/svg" xmlns:xlink="http://www.w3.org/1999/xlink" x="0px" y="0px"
	 viewBox="0 0 512 512" style="enable-background:new 0 0 512 512;" xml:space="preserve">
<g>
	<g>
		<path d="M295.232,2.952l-194.32,194.656L169.992,267l33.704-33.384c6.6-47.872,38.168-79.544,85.184-85.152l106.4-107.256
			C365.6,21.92,331.704,8.56,295.232,2.952z"/>
	</g>
</g>
<g>
	<g>
		<path d="M421.248,60.504l-89.28,90.144c45.752,10.696,74.048,48.392,74.048,102.192c0,19.936-11.24,47.416-25.776,74.624
			l81.264,81.144C493.224,365.992,512,313.168,512,255.96C512,177.576,476.736,107.464,421.248,60.504z"/>
	</g>
</g>
<g>
	<g>
		<path d="M304.168,179.456c-44.392,0-69.864,26.752-69.864,73.384c0,19.856,24.36,72.712,69.808,135.528
			c41.168-57.6,69.912-112.816,69.912-135.528C374.024,206.2,348.56,179.456,304.168,179.456z M301.752,285.752
			c-18.216,0-32.984-14.768-32.984-32.984s14.768-32.984,32.984-32.984s32.984,14.768,32.984,32.984
			S319.968,285.752,301.752,285.752z"/>
	</g>
</g>
<g>
	<g>
		<path d="M363.744,356.216c-20.88,34.208-42.568,63.152-47.032,69.088l-12.536,16.456l-12.456-16.456
			c-7.96-10.408-69.44-92.472-85.528-148.856L60.224,420.84c46.96,55.704,117.216,91.12,195.776,91.12
			c72.624,0,138.144-30.296,184.736-78.872L363.744,356.216z"/>
	</g>
</g>
<g>
	<g>
		<path d="M18.568,160.24C6.632,189.816,0,222.104,0,255.96c0,51.208,15.096,98.856,40.984,138.864l106.28-105.304L18.568,160.24z"
			/>
	</g>
</g>
<g>
	<g>
		<path d="M33.328,129.712l45.016,45.216L252.928,0.04C158.76,1.152,76.864,53.088,33.328,129.712z"/>
	</g>
</g>
<g>
</g>
<g>
</g>
<g>
</g>
<g>
</g>
<g>
</g>
<g>
</g>
<g>
</g>
<g>
</g>
<g>
</g>
<g>
</g>
<g>
</g>
<g>
</g>
<g>
</g>
<g>
</g>
<g>
</g>
</svg>
